<svg xmlns="http://www.w3.org/2000/svg" viewBox="0 0 4261.13 992.26"><defs><style>.cls-1,.cls-7{fill:#333132;}.cls-2{fill:#6bac40;}.cls-3{fill:none;stroke:#6bac40;stroke-miterlimit:10;stroke-width:10px;}.cls-4{fill:#afafaf;}.cls-5,.cls-6{font-size:647.89px;}.cls-5{fill:#56a748;}.cls-5,.cls-6,.cls-7{font-family:Eina01-Bold;font-weight:700;}.cls-6{fill:#fff;}.cls-7{font-size:138.45px;}</style></defs><g id="Layer_2" data-name="Layer 2"><g id="Layer_1-2" data-name="Layer 1"><polygon class="cls-1" points="872.36 251.43 765.35 355.03 619.89 209.58 413.64 415.83 435.98 438.17 537.39 539.58 537.39 745.83 486.3 694.73 332.85 541.29 206.25 414.68 620.93 0 872.36 251.43"/><polygon class="cls-1" points="1110.3 489.37 720.72 877.59 415.93 877.59 0 446.76 460.62 117.92 155.83 416.97 560.98 822.12 896.71 486.4 859.95 449.64 965.99 345.06 1110.3 489.37"/><polygon class="cls-2" points="537.39 539.58 537.39 745.83 486.3 694.73 332.85 541.29 435.98 438.17 537.39 539.58"/><polygon class="cls-2" points="1010.92 259.61 524.85 733.55 537.41 745.83 1023.08 270.64 1010.92 259.61"/><circle class="cls-3" cx="1037.54" cy="239.74" r="34.8"/><polygon class="cls-2" points="929.41 271.71 503.61 688.25 516.5 700.85 941.57 282.75 929.41 271.71"/><circle class="cls-3" cx="961.15" cy="255.02" r="34.8"/><polygon class="cls-2" points="941.47 198.53 515.67 615.06 528.56 627.66 953.63 209.56 941.47 198.53"/><circle class="cls-3" cx="969.94" cy="178.44" r="34.8"/><polygon class="cls-4" points="418.86 877.59 306.47 955.85 515.43 955.85 572.04 910.06 658.63 955.85 865.09 955.85 718.57 877.59 418.86 877.59"/><text class="cls-5" transform="translate(1142.4 769.94)">SOFT</text><text class="cls-6" transform="translate(2870.12 779.94)">BOX</text><text class="cls-7" transform="translate(2910.84 955.43)">Meet the technology</text></g></g></svg>